<svg xmlns="http://www.w3.org/2000/svg" viewBox="0 0 64 64" width="64" height="64" role="img" aria-label="Behruz Sayfiyev logotipi"><title>Behruz Sayfiyev — kimyo va biologiya</title><defs><linearGradient id="bsg" x1="0" y1="0" x2="1" y2="1"><stop offset="0" stop-color="#2dd4bf"/><stop offset="1" stop-color="#a78bfa"/></linearGradient></defs><path d="M 25.50,4.75 Q 32.00,1.00 38.50,4.75 L 52.35,12.75 Q 58.85,16.50 58.85,24.00 L 58.85,40.00 Q 58.85,47.50 52.35,51.25 L 38.50,59.25 Q 32.00,63.00 25.50,59.25 L 11.65,51.25 Q 5.15,47.50 5.15,40.00 L 5.15,24.00 Q 5.15,16.50 11.65,12.75 Z" fill="url(#bsg)"/><path d="M 39.6,17.0 C 39.6,28.0 24.4,36.0 24.4,47.0" fill="none" stroke="#0a0f1c" stroke-width="4.6" stroke-linecap="round"/><path d="M 24.4,17.0 C 24.4,28.0 39.6,36.0 39.6,47.0" fill="none" stroke="#0a0f1c" stroke-width="4.6" stroke-linecap="round"/><line x1="38.7" y1="21.8" x2="25.3" y2="21.8" stroke="#0a0f1c" stroke-width="3.6" stroke-linecap="round"/><line x1="25.3" y1="42.2" x2="38.7" y2="42.2" stroke="#0a0f1c" stroke-width="3.6" stroke-linecap="round"/></svg>